<svg xmlns="http://www.w3.org/2000/svg" viewBox="0 0 64 72" role="img" aria-labelledby="title desc">
  <title id="title">쌍칼 아카이브 SK 방패 마크</title>
  <desc id="desc">반듯하게 정렬된 아이보리 S와 붉은 K를 담은 짙은 남색 방패</desc>
  <defs>
    <linearGradient id="shield-fill" x1="10" y1="8" x2="54" y2="63" gradientUnits="userSpaceOnUse">
      <stop stop-color="#172332"/>
      <stop offset=".55" stop-color="#0b131e"/>
      <stop offset="1" stop-color="#070c13"/>
    </linearGradient>
    <linearGradient id="shield-edge" x1="8" y1="8" x2="56" y2="62" gradientUnits="userSpaceOnUse">
      <stop stop-color="#f4efe4"/>
      <stop offset=".48" stop-color="#d7bd7b"/>
      <stop offset="1" stop-color="#829dac"/>
    </linearGradient>
    <filter id="inner-shadow" x="-20%" y="-20%" width="140%" height="140%">
      <feDropShadow dx="0" dy="1.5" stdDeviation="1.5" flood-color="#000814" flood-opacity=".68"/>
    </filter>
  </defs>

  <path d="M32 1.8 60.5 12v25.4c0 16.8-10.8 28.2-28.5 33.2C14.3 65.6 3.5 54.2 3.5 37.4V12L32 1.8Z" fill="#050910"/>
  <path d="M32 4.7 57.7 14v23.1c0 14.8-9.2 24.6-25.7 29.7C15.5 61.7 6.3 51.9 6.3 37.1V14L32 4.7Z" fill="url(#shield-fill)" stroke="url(#shield-edge)" stroke-width="2"/>
  <path d="M32 8.5 54 16.4v20.2c0 12.3-7.4 20.7-22 25.7-14.6-5-22-13.4-22-25.7V16.4L32 8.5Z" fill="none" stroke="#90a8b4" stroke-opacity=".42"/>

  <g filter="url(#inner-shadow)">
    <path d="M12.5 18.5h17v5.6h-11v7h11v17.4h-17v-5.6h11v-6.3h-11V18.5Z" fill="#f4efe4"/>
    <path d="M33.5 18.5h6v11.9l9.7-11.9h7.3L44.2 33.2l12.9 15.3h-7.5L39.5 36.1v12.4h-6v-30Z" fill="#ef4e46"/>
  </g>

  <path d="M32 8.5v5.2" stroke="#d7bd7b" stroke-width="1.2" stroke-linecap="round"/>
  <path d="M54.4 12.1 60 14.1v5.8l-2.3-.8v-3.4l-3.3-1.2v-2.4Z" fill="#ef4e46"/>
</svg>
